<?xml version="1.0" encoding="iso-8859-1"?>
<!-- Generator: Adobe Illustrator 19.0.0, SVG Export Plug-In . SVG Version: 6.00 Build 0)  -->
<svg version="1.1" id="Layer_1" xmlns="http://www.w3.org/2000/svg" xmlns:xlink="http://www.w3.org/1999/xlink" x="0px" y="0px"
	 viewBox="0 0 512 512" style="enable-background:new 100px;" xml:space="preserve">
<g>
	<g>
		<path d="M256,0C114.841,0,0,114.841,0,256s114.841,256,256,256s256-114.841,256-256S397.159,0,256,0z M256,495.832
			C123.756,495.832,16.168,388.244,16.168,256S123.756,16.168,256,16.168S495.832,123.756,495.832,256S388.244,495.832,256,495.832z
			"/>
	</g>
</g>
<g>
	<g>
		<path d="M169.768,134.737c-25.26,0-45.811,20.55-45.811,45.81c0,25.26,20.55,45.811,45.811,45.811s45.811-20.55,45.811-45.811
			C215.579,155.287,195.029,134.737,169.768,134.737z M169.768,210.189c-16.345,0-29.642-13.298-29.642-29.642
			s13.297-29.642,29.642-29.642s29.642,13.298,29.642,29.642S186.114,210.189,169.768,210.189z"/>
	</g>
</g>
<g>
	<g>
		<path d="M342.232,134.737c-25.26,0-45.81,20.55-45.81,45.81c0,25.26,20.55,45.811,45.81,45.811
			c25.26,0,45.811-20.55,45.811-45.811C388.042,155.287,367.492,134.737,342.232,134.737z M342.232,210.189
			c-16.345,0-29.642-13.298-29.642-29.642s13.297-29.642,29.642-29.642s29.642,13.298,29.642,29.642
			S358.577,210.189,342.232,210.189z"/>
	</g>
</g>
<g>
	<g>
		<path d="M97.011,285.642v8.084c0,87.667,71.322,158.989,158.989,158.989s158.989-71.322,158.989-158.989v-8.084H97.011z
			 M256,436.547c-76.041,0-138.392-59.728-142.595-134.737h285.189C394.392,376.819,332.041,436.547,256,436.547z"/>
	</g>
</g>
<g>
</g>
<g>
</g>
<g>
</g>
<g>
</g>
<g>
</g>
<g>
</g>
<g>
</g>
<g>
</g>
<g>
</g>
<g>
</g>
<g>
</g>
<g>
</g>
<g>
</g>
<g>
</g>
<g>
</g>
</svg>
